HIERARCHY
ROOT Hips
{
    OFFSET 0.000000 0.000000 0.000000
    CHANNELS 6 Xposition Yposition Zposition Zrotation Yrotation Xrotation
    JOINT Chest
    {
        OFFSET 0.000000 1.634758 -0.000000
        CHANNELS 3 Zrotation Yrotation Xrotation
        JOINT Chest2
        {
            OFFSET 0.000000 2.197341 0.000000
            CHANNELS 3 Zrotation Yrotation Xrotation
            JOINT Neck
            {
                OFFSET 0.000000 0.961544 0.000000
                CHANNELS 3 Zrotation Yrotation Xrotation
                JOINT Head
                {
                    OFFSET 0.000000 0.632542 -0.032565
                    CHANNELS 3 Zrotation Yrotation Xrotation
                    End Site
                    {
                        OFFSET -0.000001 0.439502 2.922845
                    }
                }
            }
            JOINT LeftCollar
            {
                OFFSET 0.167536 0.778237 -0.168280
                CHANNELS 3 Zrotation Yrotation Xrotation
                JOINT LeftShoulder
                {
                    OFFSET 0.831514 -0.002900 0.006458
                    CHANNELS 3 Zrotation Yrotation Xrotation
                    JOINT LeftElbow
                    {
                        OFFSET 2.272872 -0.026639 0.059314
                        CHANNELS 3 Zrotation Yrotation Xrotation
                        JOINT LeftWrist
                        {
                            OFFSET 2.081982 -0.024402 0.054333
                            CHANNELS 3 Zrotation Yrotation Xrotation
                            JOINT LeftHandThumb1
                            {
                                OFFSET 0.218903 -0.128645 0.283837
                                CHANNELS 3 Zrotation Yrotation Xrotation
                                JOINT LeftHandThumb2
                                {
                                    OFFSET 0.137157 -0.025101 0.077902
                                    CHANNELS 3 Zrotation Yrotation Xrotation
                                    JOINT LeftHandThumb3
                                    {
                                        OFFSET 0.150116 -0.081661 -0.065849
                                        CHANNELS 3 Zrotation Yrotation Xrotation
                                        End Site
                                        {
                                            OFFSET 0.057064 -0.067051 -0.253149
                                        }
                                    }
                                }
                            }
                            JOINT LeftHandFore1
                            {
                                OFFSET 0.767340 -0.016076 0.196678
                                CHANNELS 3 Zrotation Yrotation Xrotation
                                JOINT LeftHandFore2
                                {
                                    OFFSET 0.022648 -0.215582 0.002626
                                    CHANNELS 3 Zrotation Yrotation Xrotation
                                    JOINT LeftHandFore3
                                    {
                                        OFFSET -0.126143 0.026663 0.011830
                                        CHANNELS 3 Zrotation Yrotation Xrotation
                                        End Site
                                        {
                                            OFFSET -0.038758 0.188890 0.013596
                                        }
                                    }
                                }
                            }
                            JOINT LeftHandMiddle1
                            {
                                OFFSET 0.709887 -0.008320 0.018526
                                CHANNELS 3 Zrotation Yrotation Xrotation
                                JOINT LeftHandMiddle2
                                {
                                    OFFSET 0.043786 -0.240818 0.012389
                                    CHANNELS 3 Zrotation Yrotation Xrotation
                                    JOINT LeftHandMiddle3
                                    {
                                        OFFSET -0.146076 0.002496 -0.006240
                                        CHANNELS 3 Zrotation Yrotation Xrotation
                                        End Site
                                        {
                                            OFFSET -0.060947 0.227683 -0.008729
                                        }
                                    }
                                }
                            }
                            JOINT LeftHandRing1
                            {
                                OFFSET 0.743817 -0.005823 -0.153668
                                CHANNELS 3 Zrotation Yrotation Xrotation
                                JOINT LeftHandRing2
                                {
                                    OFFSET 0.054885 -0.348080 0.023696
                                    CHANNELS 3 Zrotation Yrotation Xrotation
                                    JOINT LeftHandRing3
                                    {
                                        OFFSET -0.135910 0.008780 -0.007539
                                        CHANNELS 3 Zrotation Yrotation Xrotation
                                        End Site
                                        {
                                            OFFSET -0.031441 0.115268 -0.012024
                                        }
                                    }
                                }
                            }
                            JOINT LeftHandLittle1
                            {
                                OFFSET 0.689408 -0.053302 -0.308304
                                CHANNELS 3 Zrotation Yrotation Xrotation
                                JOINT LeftHandLittle2
                                {
                                    OFFSET 0.055164 -0.186839 0.010114
                                    CHANNELS 3 Zrotation Yrotation Xrotation
                                    JOINT LeftHandLittle3
                                    {
                                        OFFSET -0.119128 -0.006807 -0.016075
                                        CHANNELS 3 Zrotation Yrotation Xrotation
                                        End Site
                                        {
                                            OFFSET -0.008793 0.189197 -0.020390
                                        }
                                    }
                                }
                            }
                        }
                    }
                }
            }
            JOINT RightCollar
            {
                OFFSET -0.167536 0.778237 -0.168280
                CHANNELS 3 Zrotation Yrotation Xrotation
                JOINT RightShoulder
                {
                    OFFSET -0.831514 -0.002900 0.006457
                    CHANNELS 3 Zrotation Yrotation Xrotation
                    JOINT RightElbow
                    {
                        OFFSET -2.272872 -0.026639 0.059313
                        CHANNELS 3 Zrotation Yrotation Xrotation
                        JOINT RightWrist
                        {
                            OFFSET -2.081982 -0.024402 0.054331
                            CHANNELS 3 Zrotation Yrotation Xrotation
                            JOINT RightHandThumb1
                            {
                                OFFSET -0.218911 -0.128571 0.283837
                                CHANNELS 3 Zrotation Yrotation Xrotation
                                JOINT RightHandThumb2
                                {
                                    OFFSET -0.137157 -0.025101 0.077902
                                    CHANNELS 3 Zrotation Yrotation Xrotation
                                    JOINT RightHandThumb3
                                    {
                                        OFFSET -0.120526 -0.134493 -0.030408
                                        CHANNELS 3 Zrotation Yrotation Xrotation
                                        End Site
                                        {
                                            OFFSET 0.028155 -0.219236 -0.151588
                                        }
                                    }
                                }
                            }
                            JOINT RightHandFore1
                            {
                                OFFSET -0.767344 -0.015991 0.196679
                                CHANNELS 3 Zrotation Yrotation Xrotation
                                JOINT RightHandFore2
                                {
                                    OFFSET -0.022696 -0.215580 0.002649
                                    CHANNELS 3 Zrotation Yrotation Xrotation
                                    JOINT RightHandFore3
                                    {
                                        OFFSET 0.125552 0.026337 -0.017468
                                        CHANNELS 3 Zrotation Yrotation Xrotation
                                        End Site
                                        {
                                            OFFSET 0.038112 0.188556 -0.019001
                                        }
                                    }
                                }
                            }
                            JOINT RightHandMiddle1
                            {
                                OFFSET -0.709887 -0.008302 0.018525
                                CHANNELS 3 Zrotation Yrotation Xrotation
                                JOINT RightHandMiddle2
                                {
                                    OFFSET -0.043759 -0.240816 0.012439
                                    CHANNELS 3 Zrotation Yrotation Xrotation
                                    JOINT RightHandMiddle3
                                    {
                                        OFFSET 0.144950 0.002045 -0.019229
                                        CHANNELS 3 Zrotation Yrotation Xrotation
                                        End Site
                                        {
                                            OFFSET 0.060135 0.227346 -0.018105
                                        }
                                    }
                                }
                            }
                            JOINT RightHandRing1
                            {
                                OFFSET -0.743819 -0.005785 -0.153669
                                CHANNELS 3 Zrotation Yrotation Xrotation
                                JOINT RightHandRing2
                                {
                                    OFFSET -0.054895 -0.348070 0.023817
                                    CHANNELS 3 Zrotation Yrotation Xrotation
                                    JOINT RightHandRing3
                                    {
                                        OFFSET 0.129630 0.007459 -0.041778
                                        CHANNELS 3 Zrotation Yrotation Xrotation
                                        End Site
                                        {
                                            OFFSET 0.032016 0.115408 -0.008733
                                        }
                                    }
                                }
                            }
                            JOINT RightHandLittle1
                            {
                                OFFSET -0.689403 -0.053298 -0.308303
                                CHANNELS 3 Zrotation Yrotation Xrotation
                                JOINT RightHandLittle2
                                {
                                    OFFSET -0.055154 -0.186842 0.010158
                                    CHANNELS 3 Zrotation Yrotation Xrotation
                                    JOINT RightHandLittle3
                                    {
                                        OFFSET 0.115612 -0.006663 -0.032942
                                        CHANNELS 3 Zrotation Yrotation Xrotation
                                        End Site
                                        {
                                            OFFSET 0.016634 0.188946 0.017648
                                        }
                                    }
                                }
                            }
                        }
                    }
                }
            }
        }
    }
    JOINT LeftHip
    {
        OFFSET 0.685143 0.673822 -0.044491
        CHANNELS 3 Zrotation Yrotation Xrotation
        JOINT LeftKnee
        {
            OFFSET 0.085364 -3.750208 0.017676
            CHANNELS 3 Zrotation Yrotation Xrotation
            JOINT LeftAnkle
            {
                OFFSET 0.094583 -4.155206 0.019585
                CHANNELS 3 Zrotation Yrotation Xrotation
                JOINT LeftToe
                {
                    OFFSET -0.000000 -0.395925 0.621478
                    CHANNELS 3 Zrotation Yrotation Xrotation
                    End Site
                    {
                        OFFSET -0.000000 -0.077878 0.321152
                    }
                }
            }
        }
    }
    JOINT RightHip
    {
        OFFSET -0.685143 0.673822 -0.044492
        CHANNELS 3 Zrotation Yrotation Xrotation
        JOINT RightKnee
        {
            OFFSET -0.085364 -3.750208 0.017677
            CHANNELS 3 Zrotation Yrotation Xrotation
            JOINT RightAnkle
            {
                OFFSET -0.094583 -4.155206 0.019585
                CHANNELS 3 Zrotation Yrotation Xrotation
                JOINT RightToe
                {
                    OFFSET -0.000000 -0.395925 0.621478
                    CHANNELS 3 Zrotation Yrotation Xrotation
                    End Site
                    {
                        OFFSET -0.000000 -0.077878 0.321152
                    }
                }
            }
        }
    }
}
MOTION
Frames: 5
Frame Time: 0.033333
-0.025228 8.269821 -0.496257 180.000000 -0.000011 180.000000 -2.158265 -0.149458 -3.073019 -0.001482 0.023206 -3.645251 -1.237469 -0.390572 12.393514 0.038072 -0.739273 25.965128 -7.282172 0.685874 0.005426 -4.403248 28.532480 69.358765 177.763687 -64.725533 -178.590057 -26.460337 -26.472305 11.891262 0.000000 0.000005 0.000003 -0.000005 -0.000001 -0.000005 0.000000 0.000001 0.000000 0.000000 0.000003 -0.000003 -0.000002 -0.000001 0.000001 -0.000002 -0.000001 -0.000001 0.000003 0.000004 -0.000002 -0.000002 0.000003 0.000000 0.000003 -0.000006 -0.000000 0.000000 0.000002 0.000001 0.000002 0.000000 0.000002 -0.000003 0.000001 -0.000001 0.000002 0.000002 -0.000002 0.000000 -0.000002 -0.000003 -0.000002 -0.000001 0.000002 7.787844 -0.605972 -0.001121 8.504701 -26.662989 69.303665 -177.645706 66.608398 -178.460464 24.486563 27.063192 10.684758 0.000000 -0.000001 0.000000 -0.000002 -0.000001 0.000003 -0.000003 -0.000000 -0.000001 0.000000 -0.000000 -0.000002 0.000000 0.000000 -0.000000 0.000002 -0.000005 0.000001 0.000005 0.000001 0.000001 0.000000 0.000001 -0.000001 0.000002 0.000001 -0.000001 0.000002 -0.000002 -0.000001 0.000002 0.000000 -0.000001 0.000000 -0.000001 0.000001 0.000003 -0.000000 -0.000000 0.000000 -0.000000 0.000002 0.000002 0.000003 -0.000001 -0.835925 -0.325407 -4.015892 0.040041 0.320659 14.233257 5.743607 0.802878 -14.882805 0.066052 0.435195 -5.000179 1.130582 6.545311 -4.786616 -0.051403 -0.362565 16.140984 0.194965 -8.811584 -15.644294 -0.005621 -0.036304 -4.831676
-0.025228 8.269821 -0.496257 180.000000 -0.000011 180.000000 -2.159888 -0.154070 -3.073357 0.003447 0.023553 -3.644327 -1.237764 -0.389694 12.393288 0.037976 -0.737414 25.964151 -7.284390 0.687934 0.005434 -4.411812 28.537434 69.367195 177.762772 -64.741196 -178.589050 -26.452187 -26.472248 11.891038 0.000000 0.000008 0.000007 -0.000005 -0.000001 -0.000003 0.000000 -0.000003 0.000000 0.000000 0.000012 0.000005 0.000000 0.000000 -0.000001 0.000002 -0.000002 -0.000001 0.000000 0.000015 0.000004 -0.000002 0.000001 0.000000 0.000005 0.000002 -0.000001 0.000000 0.000005 0.000002 -0.000002 -0.000002 0.000000 -0.000002 0.000000 0.000000 0.000000 0.000010 0.000002 0.000000 -0.000001 -0.000003 0.000002 -0.000002 0.000004 7.789092 -0.605322 -0.001133 8.507998 -26.652637 69.302315 -177.644760 66.622360 -178.459442 24.473116 27.065594 10.682677 -0.000003 -0.000002 0.000000 -0.000002 -0.000002 -0.000000 0.000002 -0.000000 -0.000002 0.000002 -0.000013 0.000004 0.000000 -0.000002 0.000000 0.000003 0.000002 0.000001 -0.000002 -0.000003 0.000007 -0.000002 -0.000000 0.000001 0.000003 -0.000000 -0.000001 0.000000 -0.000005 0.000001 0.000000 0.000004 -0.000000 0.000003 -0.000003 0.000001 0.000002 -0.000003 0.000005 0.000002 0.000003 0.000001 0.000002 -0.000003 0.000003 -0.836191 -0.330179 -4.015783 0.040041 0.320659 14.233255 5.738163 0.811323 -14.882544 0.065994 0.434790 -4.999704 1.130721 6.547611 -4.786525 -0.051403 -0.362565 16.140944 0.194434 -8.813750 -15.647009 -0.005630 -0.036339 -4.827497
-0.025228 8.269821 -0.496257 180.000000 -0.000011 180.000000 -2.162176 -0.158888 -3.074293 0.007692 0.023983 -3.641857 -1.238870 -0.388656 12.392817 0.037847 -0.734937 25.961611 -7.289964 0.692920 0.005476 -4.429442 28.546913 69.388252 177.760239 -64.784775 -178.586243 -26.428354 -26.472027 11.890369 0.000007 0.000015 -0.000002 -0.000005 -0.000003 -0.000002 0.000002 0.000003 -0.000002 0.000002 0.000012 0.000002 -0.000002 -0.000002 0.000000 -0.000002 0.000000 0.000001 0.000002 0.000016 0.000001 0.000002 -0.000002 -0.000001 0.000003 0.000002 0.000001 0.000002 0.000004 -0.000000 0.000002 -0.000003 -0.000001 0.000002 0.000000 -0.000001 0.000000 0.000012 -0.000001 0.000005 -0.000000 0.000001 -0.000002 -0.000002 0.000002 7.793808 -0.604504 -0.001157 8.524866 -26.627483 69.301735 -177.641830 66.665520 -178.456238 24.434166 27.072529 10.676779 -0.000005 0.000004 -0.000003 -0.000002 0.000005 0.000001 -0.000002 -0.000003 -0.000000 0.000002 -0.000008 0.000009 0.000000 0.000001 -0.000000 0.000003 -0.000002 -0.000000 -0.000005 0.000000 0.000010 0.000002 0.000001 -0.000000 0.000005 -0.000005 -0.000003 0.000000 -0.000004 0.000008 0.000002 -0.000001 0.000000 0.000000 0.000001 0.000001 0.000003 -0.000001 0.000005 0.000000 -0.000000 -0.000000 0.000000 0.000003 -0.000003 -0.836977 -0.344243 -4.015460 0.040041 0.320659 14.233253 5.722093 0.836288 -14.881781 0.065825 0.433601 -4.998372 1.131128 6.554342 -4.786212 -0.051401 -0.362559 16.140724 0.192876 -8.820097 -15.655004 -0.005654 -0.036446 -4.815173
-0.025228 8.269821 -0.496257 180.000000 -0.000011 180.000000 -2.163742 -0.157945 -3.075712 0.005356 0.024011 -3.638208 -1.240948 -0.388505 12.392231 0.037809 -0.734170 25.957827 -7.298105 0.700116 0.005527 -4.451719 28.557350 69.418709 177.756226 -64.853798 -178.581802 -26.389755 -26.471594 11.889254 -0.000002 0.000007 0.000000 -0.000002 -0.000004 -0.000002 0.000002 -0.000002 -0.000000 0.000007 0.000012 0.000004 0.000000 -0.000005 -0.000000 -0.000003 0.000001 -0.000001 0.000000 0.000014 0.000004 -0.000002 -0.000003 -0.000001 0.000002 0.000000 0.000001 -0.000002 0.000005 0.000002 0.000000 0.000002 0.000002 -0.000003 -0.000001 0.000000 -0.000005 0.000008 0.000001 0.000005 -0.000000 -0.000003 -0.000003 0.000000 0.000000 7.802285 -0.604131 -0.001188 8.558837 -26.592003 69.304253 -177.636871 66.737778 -178.450836 24.371763 27.083584 10.667545 -0.000009 0.000003 -0.000003 -0.000005 0.000009 -0.000007 0.000000 -0.000002 -0.000001 0.000000 -0.000007 0.000005 0.000002 0.000005 -0.000002 -0.000002 -0.000001 -0.000000 0.000002 0.000004 0.000004 -0.000002 0.000002 0.000000 0.000002 -0.000001 -0.000000 0.000003 0.000000 0.000002 -0.000002 0.000002 0.000001 0.000000 0.000001 0.000002 -0.000002 0.000000 0.000004 0.000000 -0.000001 0.000001 -0.000002 0.000002 -0.000004 -0.838261 -0.367244 -4.014933 0.040041 0.320659 14.233253 5.695790 0.877243 -14.880550 0.065546 0.431651 -4.996128 1.131787 6.565242 -4.785728 -0.051399 -0.362552 16.140413 0.190359 -8.830367 -15.668176 -0.005692 -0.036605 -4.794866
-0.025228 8.269821 -0.496257 180.000000 -0.000011 180.000000 -2.165730 -0.156084 -3.077503 0.001383 0.024018 -3.633755 -1.243812 -0.388394 12.391572 0.037763 -0.733278 25.952919 -7.309104 0.709951 0.005605 -4.481271 28.571812 69.460236 177.750717 -64.947731 -178.575714 -26.337330 -26.470890 11.887675 0.000010 0.000013 -0.000004 -0.000005 -0.000003 -0.000004 0.000002 0.000004 0.000000 0.000003 -0.000003 -0.000005 -0.000003 0.000003 0.000001 -0.000002 -0.000004 0.000001 -0.000007 0.000009 -0.000003 0.000003 -0.000003 -0.000001 0.000003 -0.000001 0.000001 -0.000007 -0.000007 -0.000008 0.000000 -0.000001 -0.000001 0.000000 -0.000001 -0.000000 -0.000010 0.000012 -0.000007 0.000005 0.000001 -0.000000 0.000003 -0.000001 0.000003 7.813878 -0.603758 -0.001226 8.605646 -26.544357 69.308006 -177.630066 66.836586 -178.443420 24.287987 27.098364 10.655449 -0.000003 0.000003 -0.000003 0.000002 0.000007 -0.000000 -0.000003 -0.000006 0.000001 -0.000002 -0.000007 0.000004 -0.000002 0.000000 -0.000001 0.000003 0.000001 0.000001 0.000000 -0.000004 0.000004 0.000000 0.000000 -0.000001 0.000000 -0.000001 -0.000001 0.000007 -0.000005 -0.000000 0.000000 0.000002 0.000000 0.000000 0.000002 0.000001 0.000010 -0.000002 -0.000001 0.000000 -0.000001 -0.000001 -0.000003 0.000001 -0.000003 -0.840024 -0.398810 -4.014207 0.040041 0.320659 14.233255 5.659645 0.933637 -14.878898 0.065163 0.428982 -4.993093 1.132683 6.580052 -4.785062 -0.051397 -0.362544 16.139975 0.186945 -8.844320 -15.686363 -0.005744 -0.036822 -4.766857
